<svg width="545" height="541" xmlns="http://www.w3.org/2000/svg" xml:space="preserve" overflow="hidden">
  <g fill-rule="evenodd">
    <path d="M5 270.5C5 121.659 125.659 1 274.5 1 423.34 1 544 121.659 544 270.5S423.34 540 274.5 540C125.659 540 5 419.341 5 270.5Z" fill="#D9D9D9"/>
    <path d="M191 260.302h73.3V187h20.4v73.302H358v20.397h-73.3V354h-20.4v-73.301H191ZM314 157.305h55.31V102h16.38v55.305H441v15.39h-55.31V228h-16.38v-55.305H314ZM106 368.305h55.31V313h15.38v55.305H232v15.39h-55.31V439h-15.38v-55.305H106ZM314 368.305h55.31V313h16.38v55.305H441v15.39h-55.31V439h-16.38v-55.305H314ZM106 157.305h55.31V102h15.38v55.305H232v15.39h-55.31V228h-15.38v-55.305H106ZM63 265.797h33.798V232h9.404v33.797H140v9.405h-33.798V309h-9.404v-33.798H63ZM407 263.798h33.8V230h9.4v33.798H484v9.404h-33.8V307h-9.4v-33.798H407ZM236 90.798h33.8V57h9.4v33.798H313v10.404h-33.8V135h-9.4v-33.798H236ZM235 433.798h33.8V400h9.4v33.798H312v9.404h-33.8V477h-9.4v-33.798H235Z" fill="#3482B6"/>
    <path d="M3 270.5C3 121.659 123.659 1 272.5 1 421.34 1 542 121.659 542 270.5S421.34 540 272.5 540C123.659 540 3 419.341 3 270.5Z" fill="#F8F8F8" fill-opacity=".3686"/>
    <path d="M273 481.21c-116.72 0-212.21-95.494-212.21-212.21 0-116.716 95.49-212.211 212.21-212.211 116.72 0 212.21 95.495 212.21 212.211 0 116.716-95.49 212.21-212.21 212.21ZM273 17C133.737 17 21 129.737 21 269s112.737 252 252 252c139.26 0 252-112.737 252-252S412.26 17 273 17Z" fill="#404040"/>
    <path d="M286.51 136H260v132.958c0 3.989 1.33 7.312 3.98 9.307L357.44 372 376 353.386l-89.49-89.746V136Z" fill="#404040"/>
  </g>
</svg>